<?xml version="1.0" standalone="no"?>
<!DOCTYPE svg PUBLIC "-//W3C//DTD SVG 20010904//EN"
 "http://www.w3.org/TR/2001/REC-SVG-20010904/DTD/svg10.dtd">
<svg version="1.0" xmlns="http://www.w3.org/2000/svg"
 width="723.000000pt" height="1280.000000pt" viewBox="0 0 723.000000 1280.000000"
 preserveAspectRatio="xMidYMid meet">
<metadata>
Created by potrace 1.15, written by Peter Selinger 2001-2017
</metadata>
<g transform="translate(0.000000,1280.000000) scale(0.100000,-0.100000)"
fill="#000000" stroke="none">
<path d="M450 12784 c-162 -43 -305 -161 -378 -314 -79 -165 -72 440 -72
-6070 0 -6507 -7 -5905 72 -6069 52 -108 161 -223 258 -269 139 -67 -132 -62
3285 -62 3417 0 3146 -5 3285 62 97 46 206 161 258 269 79 164 72 -438 72
6069 0 6510 7 5905 -72 6070 -52 109 -160 221 -258 268 -139 67 133 62 -3290
61 -2680 0 -3113 -2 -3160 -15z m6370 -6124 l0 -4900 -3205 0 -3205 0 0 4900
0 4900 3205 0 3205 0 0 -4900z"/>
</g>
</svg>
