<?xml version="1.0" encoding="UTF-8" standalone="no"?><!-- Generator: Gravit.io --><svg xmlns="http://www.w3.org/2000/svg" xmlns:xlink="http://www.w3.org/1999/xlink" style="isolation:isolate" viewBox="0 0 651.563 191.776" width="651.563pt" height="191.776pt"><defs><clipPath id="_clipPath_hKHCKRSt2YOQ3SZ8kvzBxrW3OtKwolj2"><rect width="651.563" height="191.776"/></clipPath></defs><g clip-path="url(#_clipPath_hKHCKRSt2YOQ3SZ8kvzBxrW3OtKwolj2)"><clipPath id="_clipPath_PNEMAAEF9JdFHLoadkJQjptKVCrCNTNL"><path d=" M 0 0 L 0 191.776 L 651.563 191.776 L 651.563 0 L 0 0 Z " fill="rgb(255,255,255)"/></clipPath><g clip-path="url(#_clipPath_PNEMAAEF9JdFHLoadkJQjptKVCrCNTNL)"><path d=" M 277.368 84.88 C 281.393 84.88 284.958 89.02 282.083 94.08 C 276.217 104.546 266.442 112.021 252.641 112.021 C 242.751 112.021 233.436 108.571 227.225 101.9 C 220.325 94.655 216.07 83.615 216.07 67.169 C 216.07 52.563 220.095 41.178 226.995 33.702 C 233.666 26.687 242.406 23.007 252.872 23.007 C 270.467 23.007 278.518 33.702 280.818 39.107 C 283.118 44.513 280.127 48.308 276.103 48.308 C 272.882 48.308 270.927 46.698 269.202 42.903 C 267.132 38.302 262.532 32.437 252.872 32.437 C 242.176 32.437 228.72 40.602 228.72 67.514 C 228.72 94.77 241.486 102.591 252.526 102.591 C 263.682 102.591 268.742 93.505 270.467 90.285 C 272.422 86.605 274.147 84.88 277.368 84.88 Z " fill="rgb(254,254,254)"/><path d=" M 318.559 35.083 L 318.328 35.083 L 307.059 76.139 L 329.6 76.139 L 318.559 35.083 Z  M 307.748 32.322 C 309.358 26.917 312.578 24.042 318.328 24.042 C 324.309 24.042 327.299 27.032 329.023 32.667 L 349.84 101.556 C 351.564 107.076 349.496 110.986 344.551 110.986 C 340.869 110.986 338.57 109.031 337.535 105.235 L 332.244 85.57 L 304.298 85.57 L 299.123 105.235 C 298.088 109.031 295.788 110.986 292.107 110.986 C 287.162 110.986 285.092 107.076 286.817 101.556 L 307.748 32.322 Z " fill="rgb(254,254,254)"/><path d=" M 439.863 24.042 C 446.072 24.042 450.559 27.722 450.559 35.657 L 450.559 104.315 C 450.559 108.341 448.719 110.986 444.809 110.986 C 441.014 110.986 439.057 108.341 439.057 104.2 L 439.057 34.967 L 438.828 34.967 L 411.342 105.121 C 409.73 109.146 407.086 110.986 403.406 110.986 C 400.301 110.986 397.195 109.605 395.586 105.351 L 368.1 34.967 L 367.869 34.967 L 367.869 104.315 C 367.869 108.341 366.029 110.986 362.119 110.986 C 358.324 110.986 356.369 108.341 356.369 104.2 L 356.369 35.657 C 356.369 27.722 360.854 24.042 367.064 24.042 C 372.814 24.042 376.15 26.457 378.334 31.977 C 390.984 64.179 398.92 84.305 403.291 96.38 L 403.637 96.38 C 408.352 83.385 414.447 67.744 428.592 31.977 C 430.777 26.457 434.113 24.042 439.863 24.042 Z " fill="rgb(254,254,254)"/><path d=" M 485.398 67.399 C 501.385 67.399 508.285 62.224 508.285 50.493 C 508.285 40.027 501.73 34.162 486.779 34.162 L 473.094 34.162 L 473.094 67.399 L 485.398 67.399 Z  M 460.787 32.092 C 460.787 27.492 462.627 24.732 467.803 24.732 L 487.354 24.732 C 511.734 24.732 520.936 34.277 520.936 50.263 C 520.936 69.124 509.09 76.829 485.975 76.829 L 473.094 76.829 L 473.094 103.626 C 473.094 107.996 471.139 110.986 466.883 110.986 C 462.742 110.986 460.787 108.11 460.787 103.511 L 460.787 32.092 Z " fill="rgb(254,254,254)"/><path d=" M 587.152 80.165 C 587.152 103.051 578.643 112.021 556.906 112.021 C 535.744 112.021 526.889 103.396 526.889 80.049 L 526.889 31.517 C 526.889 26.917 528.844 24.042 532.984 24.042 C 537.24 24.042 539.195 27.032 539.195 31.402 L 539.195 79.359 C 539.195 94.31 542.645 102.591 556.906 102.591 C 571.396 102.591 574.846 94.54 574.846 79.359 L 574.846 31.517 C 574.846 26.917 576.801 24.042 580.941 24.042 C 585.197 24.042 587.152 27.032 587.152 31.402 L 587.152 80.165 Z " fill="rgb(254,254,254)"/><path d=" M 599.693 90.975 C 602.109 90.975 603.49 91.895 604.984 93.735 C 608.32 98.22 614.07 102.591 621.66 102.591 C 630.861 102.591 638.91 97.07 638.91 87.985 C 638.91 83.845 636.842 80.739 633.852 78.21 C 631.09 76.139 627.756 74.529 618.67 70.159 C 609.24 66.019 604.869 63.374 601.535 60.269 C 597.854 56.934 594.52 51.758 594.52 44.168 C 594.52 34.967 600.844 23.007 621.775 23.007 C 638.336 23.007 644.201 30.367 645.582 32.782 C 647.996 36.808 645.811 41.752 641.096 41.752 C 639.141 41.752 637.301 41.178 635.576 38.763 C 633.391 35.657 629.25 32.437 622.121 32.437 C 611.885 32.437 606.939 37.612 606.939 44.053 C 606.939 47.848 609.01 51.183 612.459 53.598 C 615.795 56.013 619.359 57.968 628.215 61.764 C 636.611 65.789 641.326 68.204 644.777 71.309 C 648.342 74.874 651.563 79.819 651.563 87.18 C 651.563 97.761 643.627 112.021 621.43 112.021 C 611.539 112.021 602.225 109.836 595.783 101.44 C 592.334 96.955 594.289 90.975 599.693 90.975 Z " fill="rgb(254,254,254)"/><path d=" M 233.871 142.072 C 232.947 139.363 234.117 137.517 236.518 137.517 C 238.549 137.517 239.472 138.625 240.088 140.779 L 247.967 167.37 L 248.09 167.37 L 256.092 140.533 C 256.708 138.44 257.754 137.517 259.601 137.517 C 262.001 137.517 263.17 139.363 262.247 142.072 L 252.891 168.971 C 252.091 171.187 250.86 172.664 248.028 172.664 C 245.381 172.664 244.027 171.372 243.166 168.909 L 233.871 142.072 Z " fill="rgb(254,254,254)"/><path d=" M 289.45 131.115 C 289.45 132.716 288.157 134.009 286.557 134.009 C 284.956 134.009 283.664 132.716 283.664 131.115 C 283.664 129.515 284.956 128.223 286.557 128.223 C 288.157 128.223 289.45 129.515 289.45 131.115 Z  M 287.049 153.768 C 276.216 155.306 271.907 158.261 271.907 163 C 271.907 166.386 273.63 168.725 278.493 168.725 C 280.524 168.725 287.049 167.433 287.049 163.308 L 287.049 153.768 Z  M 277.447 131.115 C 277.447 132.716 276.154 134.009 274.554 134.009 C 272.953 134.009 271.661 132.716 271.661 131.115 C 271.661 129.515 272.953 128.223 274.554 128.223 C 276.154 128.223 277.447 129.515 277.447 131.115 Z  M 287.542 169.217 C 285.51 171.557 281.14 173.095 277.324 173.095 C 269.014 173.095 265.505 169.464 265.505 163.555 C 265.505 156.045 270.922 151.736 287.049 149.705 L 287.049 148.72 C 287.049 143.98 285.51 141.271 280.463 141.271 C 277.262 141.271 275.23 142.811 274.246 144.657 C 273.384 146.319 272.399 147.181 270.799 147.181 C 268.46 147.181 267.229 144.842 268.337 142.688 C 269.506 140.41 272.83 137.086 280.586 137.086 C 288.957 137.086 293.266 140.041 293.266 150.074 L 293.266 163.616 C 293.266 167.617 294.497 168.479 294.497 170.141 C 294.497 172.11 293.328 172.787 291.604 172.787 C 289.573 172.787 288.219 171.495 287.665 169.217 L 287.542 169.217 Z " fill="rgb(254,254,254)"/><path d=" M 316.542 142.318 C 315.249 142.318 313.71 142.749 312.049 143.857 C 310.694 144.719 307.616 147.119 307.616 148.72 L 307.616 168.971 C 307.616 171.187 306.632 172.664 304.478 172.664 C 302.385 172.664 301.399 171.248 301.399 168.909 L 301.399 141.271 C 301.399 138.933 302.385 137.517 304.478 137.517 C 306.632 137.517 307.616 138.994 307.616 141.21 L 307.616 142.011 C 308.786 140.656 310.51 139.24 311.926 138.44 C 313.402 137.64 315.064 137.147 316.973 137.147 C 318.02 137.147 319.188 137.271 320.174 137.578 C 321.713 138.071 322.451 138.871 322.451 140.41 C 322.451 142.38 320.974 143.118 319.004 142.688 C 318.45 142.564 317.711 142.318 316.542 142.318 Z " fill="rgb(254,254,254)"/><path d=" M 333.488 168.971 C 333.488 171.187 332.504 172.664 330.35 172.664 C 328.257 172.664 327.271 171.248 327.271 168.909 L 327.271 141.271 C 327.271 138.933 328.257 137.517 330.35 137.517 C 332.504 137.517 333.488 138.994 333.488 141.21 L 333.488 142.872 C 335.52 140.902 337.859 139.548 339.768 138.625 C 341.737 137.701 343.953 137.086 346.169 137.086 C 349.555 137.086 352.201 138.01 353.863 139.918 C 355.463 141.765 356.264 144.473 356.264 148.597 L 356.264 168.971 C 356.264 171.187 355.278 172.664 353.124 172.664 C 351.031 172.664 350.047 171.248 350.047 168.909 L 350.047 150.997 C 350.047 148.289 349.924 145.827 348.692 144.288 C 347.831 143.18 346.477 142.38 344.138 142.38 C 342.476 142.38 340.752 142.872 339.09 143.733 C 337.489 144.534 333.488 147.119 333.488 148.966 L 333.488 168.971 Z " fill="rgb(254,254,254)"/><path d=" M 383.502 153.768 C 372.669 155.306 368.36 158.261 368.36 163 C 368.36 166.386 370.083 168.725 374.946 168.725 C 376.978 168.725 383.502 167.433 383.502 163.308 L 383.502 153.768 Z  M 383.994 169.217 C 381.963 171.557 377.593 173.095 373.776 173.095 C 365.467 173.095 361.958 169.464 361.958 163.555 C 361.958 156.045 367.375 151.736 383.502 149.705 L 383.502 148.72 C 383.502 143.98 381.963 141.271 376.916 141.271 C 373.715 141.271 371.684 142.811 370.699 144.657 C 369.837 146.319 368.853 147.181 367.252 147.181 C 364.913 147.181 363.682 144.842 364.79 142.688 C 365.959 140.41 369.283 137.086 377.039 137.086 C 385.41 137.086 389.719 140.041 389.719 150.074 L 389.719 163.616 C 389.719 167.617 390.95 168.479 390.95 170.141 C 390.95 172.11 389.78 172.787 388.058 172.787 C 386.026 172.787 384.672 171.495 384.118 169.217 L 383.994 169.217 Z " fill="rgb(254,254,254)"/><path d=" M 441.926 172.664 C 439.832 172.664 438.848 171.248 438.848 168.909 L 438.848 150.505 C 438.848 148.043 438.725 145.519 437.616 144.104 C 436.816 143.057 435.585 142.441 433.8 142.441 C 432.508 142.441 431.03 142.934 429.43 143.857 C 427.891 144.78 424.567 147.304 424.567 148.658 L 424.567 168.971 C 424.567 171.187 423.582 172.664 421.428 172.664 C 419.335 172.664 418.351 171.248 418.351 168.909 L 418.351 150.197 C 418.351 147.427 418.042 145.334 416.935 143.98 C 416.134 142.995 414.903 142.441 413.426 142.441 C 412.071 142.441 410.595 142.811 408.871 143.919 C 407.332 144.903 404.069 147.427 404.069 148.72 L 404.069 168.971 C 404.069 171.187 403.085 172.664 400.931 172.664 C 398.838 172.664 397.853 171.248 397.853 168.909 L 397.853 141.271 C 397.853 138.933 398.838 137.517 400.931 137.517 C 403.085 137.517 404.069 138.994 404.069 141.21 L 404.069 142.503 C 405.916 140.841 407.886 139.363 409.855 138.44 C 411.641 137.578 413.672 137.086 415.642 137.086 C 418.166 137.086 420.135 137.701 421.428 138.81 C 422.598 139.794 423.459 141.333 423.89 142.626 L 424.074 142.626 C 426.106 140.841 427.952 139.363 429.86 138.502 C 431.83 137.578 433.738 137.086 436.017 137.086 C 438.971 137.086 441.248 137.948 442.726 139.732 C 444.265 141.579 445.064 144.288 445.064 148.228 L 445.064 168.971 C 445.064 171.187 444.08 172.664 441.926 172.664 Z " fill="rgb(254,254,254)"/><path d=" M 467.627 168.54 C 473.413 168.54 477.414 163.924 477.414 155.121 C 477.414 145.211 472.674 141.641 467.565 141.641 C 462.395 141.641 457.655 145.211 457.655 155.121 C 457.655 164.293 461.718 168.54 467.565 168.54 L 467.627 168.54 Z  M 483.815 155.183 C 483.815 166.386 478.398 173.095 467.565 173.095 C 456.485 173.095 451.253 166.509 451.253 155.121 C 451.253 142.257 457.963 137.086 467.565 137.086 C 477.105 137.086 483.815 142.257 483.815 155.121 L 483.815 155.183 Z " fill="rgb(254,254,254)"/><path d=" M 78.358 167.806 C 83.654 167.612 89.223 167.005 95.023 165.877 C 95.655 165.296 96.252 164.661 96.814 163.981 C 89.747 165.495 83.023 166.222 76.705 166.354 C 77.195 166.903 77.748 167.386 78.358 167.806 Z " fill="rgb(254,254,254)"/><path d=" M 11.959 115.409 C 11.564 114.897 11.186 114.389 10.827 113.885 C 7.895 109.759 6.178 105.94 5.194 103.162 C 5.049 102.749 4.923 102.367 4.808 102.003 C 5.081 100.161 5.431 98.356 5.85 96.593 C 6.41 98.056 7.068 99.569 7.861 101.12 C 9.163 103.671 10.826 106.304 12.901 108.909 C 12.522 111.034 12.204 113.2 11.959 115.409 Z  M 8.82 87.231 C 9.562 89.599 10.554 92.036 11.872 94.461 C 12.777 96.128 13.848 97.784 15.086 99.408 C 14.396 101.856 13.789 104.371 13.274 106.949 C 11.635 104.764 10.289 102.569 9.196 100.438 C 8.053 98.202 7.181 96.033 6.515 94.011 C 7.171 91.678 7.946 89.418 8.82 87.231 Z  M 8.435 69.875 C 9.299 68.583 10.209 67.341 11.148 66.135 C 11.138 66.508 11.126 66.88 11.126 67.26 C 11.126 70.279 11.444 73.509 12.281 76.758 C 11.182 78.648 10.147 80.609 9.188 82.639 C 8.494 79.235 8.279 76.107 8.28 73.567 C 8.28 72.126 8.349 70.878 8.435 69.875 Z  M 12.738 64.167 C 15.098 61.361 17.632 58.791 20.277 56.451 C 20.242 57.046 20.22 57.642 20.22 58.241 C 20.218 60.311 20.44 62.406 20.934 64.495 C 18.285 67.661 15.726 71.132 13.399 74.896 C 12.857 72.293 12.626 69.711 12.626 67.26 C 12.626 66.2 12.668 65.168 12.738 64.167 Z  M 14.053 55.858 C 14.409 54.406 14.766 53.235 15.032 52.431 C 15.123 52.155 15.198 51.94 15.265 51.753 C 17.42 49.681 19.854 47.832 22.463 46.195 C 21.545 48.779 20.844 51.497 20.487 54.291 C 17.886 56.501 15.364 58.911 12.999 61.556 C 13.273 59.396 13.66 57.454 14.053 55.858 Z  M 24.532 44.958 C 27.211 43.434 30.025 42.113 32.857 40.963 C 32.321 42.699 31.978 44.42 31.832 46.099 C 28.611 48.072 25.37 50.313 22.225 52.843 C 22.713 50.122 23.524 47.469 24.532 44.958 Z  M 29.19 35.91 C 29.506 35.403 29.822 34.918 30.137 34.443 C 32.326 33.773 34.489 33.298 36.601 32.976 C 35.334 34.986 34.298 37.038 33.511 39.086 C 30.813 40.132 28.111 41.334 25.499 42.716 C 26.628 40.255 27.904 37.959 29.19 35.91 Z  M 34.349 28.722 C 35.051 27.862 35.637 27.19 36.044 26.734 C 36.248 26.506 36.408 26.333 36.516 26.217 C 36.624 26.101 36.677 26.046 36.677 26.046 C 36.763 25.956 36.815 25.85 36.848 25.738 C 38.592 25.874 40.258 26.073 41.825 26.331 C 40.779 27.429 39.785 28.553 38.888 29.71 C 38.481 30.234 38.098 30.764 37.723 31.297 C 35.688 31.551 33.59 31.952 31.462 32.512 C 32.523 31.02 33.519 29.737 34.349 28.722 Z  M 36.376 59.144 C 36.352 59.175 36.326 59.205 36.302 59.236 C 32.979 63.347 29.655 67.981 26.565 73.113 C 24.615 70.416 23.337 67.648 22.591 64.859 C 24.406 62.725 26.26 60.728 28.106 58.879 C 29.764 57.219 31.408 55.69 33.015 54.268 C 33.81 56.109 34.948 57.74 36.376 59.144 Z  M 37.468 60.179 C 37.476 60.169 37.483 60.161 37.491 60.151 C 38.674 61.128 40.008 61.979 41.468 62.693 C 41.688 62.801 41.921 62.895 42.147 62.997 C 39.193 67.974 36.29 73.604 33.744 79.846 C 31.431 78.399 29.352 76.589 27.547 74.391 C 30.682 69.125 34.073 64.38 37.468 60.179 Z  M 43.547 63.58 C 45.267 64.233 47.123 64.73 49.09 65.067 C 47.115 70.619 45.234 76.905 43.734 83.792 C 41.905 83.395 40.138 82.872 38.451 82.209 C 37.277 81.747 36.145 81.214 35.054 80.614 C 37.62 74.293 40.558 68.599 43.547 63.58 Z  M 50.605 65.293 C 52.216 65.498 53.884 65.612 55.609 65.612 C 56.444 65.612 57.292 65.585 58.148 65.536 C 57.749 71.254 57.427 77.709 57.294 84.612 C 55.979 84.701 54.668 84.762 53.373 84.761 C 50.57 84.762 47.833 84.538 45.207 84.073 C 46.716 77.154 48.616 70.851 50.605 65.293 Z  M 58.277 116.405 C 58.018 116.409 57.759 116.417 57.499 116.417 C 52.356 116.417 47.144 115.825 41.964 114.474 C 41.962 114.19 41.957 113.905 41.957 113.623 C 41.957 109.636 42.14 105.747 42.47 101.973 C 47.624 103.212 52.639 103.799 57.481 103.845 C 57.648 107.989 57.907 112.191 58.277 116.405 Z  M 57.424 102.344 C 52.651 102.293 47.709 101.706 42.621 100.466 C 43.136 95.25 43.925 90.261 44.904 85.543 C 47.641 86.029 50.48 86.261 53.373 86.261 C 54.661 86.261 55.962 86.204 57.267 86.118 C 57.241 87.801 57.228 89.509 57.228 91.238 C 57.228 94.86 57.291 98.576 57.424 102.344 Z  M 35.473 98.325 C 33.489 97.609 31.682 96.815 30.017 95.963 C 31.257 91.04 32.794 86.398 34.505 82.027 C 35.601 82.62 36.734 83.146 37.902 83.605 C 39.676 84.301 41.524 84.849 43.432 85.261 C 42.458 89.956 41.672 94.917 41.152 100.103 C 39.277 99.602 37.384 99.014 35.473 98.325 Z  M 40.457 113.623 C 40.457 113.765 40.46 113.909 40.46 114.052 C 39.356 113.731 38.253 113.388 37.153 112.994 C 33.539 111.698 30.387 110.181 27.614 108.511 C 28.118 104.697 28.822 101.022 29.666 97.472 C 31.297 98.29 33.057 99.05 34.964 99.735 C 36.994 100.468 39.006 101.092 40.998 101.617 C 40.652 105.504 40.458 109.511 40.457 113.623 Z  M 26.228 107.645 C 22.266 105.061 19.158 102.147 16.731 99.091 C 17.613 96.051 18.622 93.114 19.733 90.282 C 22.005 92.658 24.823 94.852 28.293 96.754 C 27.448 100.257 26.748 103.888 26.228 107.645 Z  M 26.74 75.772 C 28.633 77.983 30.806 79.8 33.193 81.261 C 31.469 85.642 29.919 90.299 28.657 95.234 C 25.239 93.315 22.516 91.115 20.355 88.744 C 22.251 84.129 24.416 79.803 26.74 75.772 Z  M 21.72 58.241 C 21.719 57.178 21.781 56.119 21.897 55.066 C 25.102 52.381 28.427 50.008 31.751 47.924 C 31.757 49.602 31.988 51.224 32.456 52.752 C 30.692 54.298 28.874 55.986 27.044 57.819 C 25.42 59.446 23.787 61.19 22.177 63.04 C 21.877 61.44 21.721 59.837 21.72 58.241 Z  M 25.726 74.529 C 23.381 78.551 21.188 82.867 19.256 87.474 C 18.428 86.452 17.692 85.403 17.045 84.336 C 15.596 81.946 14.596 79.457 13.903 76.962 C 16.197 73.092 18.754 69.523 21.42 66.263 C 22.296 69.067 23.689 71.847 25.726 74.529 Z  M 15.614 97.604 C 14.704 96.33 13.896 95.04 13.19 93.744 C 11.594 90.811 10.498 87.852 9.749 85.023 C 10.7 82.861 11.746 80.775 12.866 78.765 C 13.566 80.909 14.508 83.044 15.763 85.114 C 16.577 86.459 17.527 87.773 18.616 89.043 C 17.513 91.797 16.506 94.651 15.614 97.604 Z  M 72.634 6.856 C 72.732 6.717 72.764 6.556 72.758 6.398 C 75.745 5.602 79.424 4.895 83.501 4.703 C 80.441 6.885 77.955 9.447 75.977 11.98 C 75.512 11.963 75.051 11.94 74.58 11.94 C 72.867 11.94 71.115 12.06 69.343 12.282 C 70.25 10.523 71.332 8.704 72.634 6.856 Z  M 103.136 4.808 C 106.224 5.411 110.104 6.381 114.073 7.91 C 111.67 8.204 109.345 8.593 107.104 9.058 C 104.886 7.691 102.641 6.605 100.401 5.76 C 101.297 5.424 102.207 5.105 103.136 4.808 Z  M 110.153 45.807 C 106.325 44.298 102.688 42.971 99.336 41.817 C 100.555 39.544 101.401 37.234 101.816 34.944 C 107.247 35.759 113.252 36.818 119.498 38.195 C 118.771 41.535 117.486 44.877 115.809 48.122 C 113.89 47.311 111.996 46.533 110.153 45.807 Z  M 96.73 108.176 C 97.584 107.769 98.413 107.357 99.231 106.944 L 104.352 117.063 C 101.712 118.325 98.971 119.499 96.15 120.565 C 92.453 121.965 88.624 123.186 84.73 124.202 C 83.648 120.832 82.607 117.452 81.608 114.081 C 87.05 112.417 92.148 110.356 96.73 108.176 Z  M 109.09 126.425 C 102.908 129.481 95.82 132.419 88.228 134.631 C 87.182 131.657 86.167 128.651 85.187 125.634 C 89.106 124.606 92.958 123.377 96.681 121.968 C 99.55 120.882 102.34 119.688 105.028 118.401 L 109.09 126.425 Z  M 19.693 138.601 C 16.865 136.454 14.681 134.398 13.038 132.649 C 12.91 130.559 12.844 128.497 12.844 126.469 C 12.844 126.466 12.844 126.462 12.844 126.459 C 14.837 128.659 17.226 130.919 20.057 133.125 C 19.613 132.143 19.185 131.151 18.784 130.144 C 16.479 128.153 14.519 126.149 12.874 124.216 C 12.913 122.499 12.997 120.807 13.121 119.136 C 14.115 120.247 15.211 121.36 16.394 122.465 C 16.244 121.663 16.139 120.864 16.108 120.108 C 15.094 119.094 14.152 118.077 13.299 117.066 C 13.515 114.81 13.803 112.597 14.162 110.428 C 15.624 112.114 17.274 113.78 19.136 115.393 C 19.802 115.296 20.563 115.308 21.361 115.376 C 21.396 115.372 21.423 115.363 21.458 115.359 C 18.725 113.158 16.42 110.847 14.496 108.501 C 14.982 105.884 15.572 103.336 16.243 100.853 C 18.791 103.883 21.988 106.761 26.009 109.296 C 25.752 111.385 25.57 113.523 25.431 115.686 C 25.931 115.782 26.428 115.889 26.927 116.006 C 27.047 114.025 27.2 112.064 27.425 110.146 C 30.143 111.732 33.196 113.172 36.648 114.406 C 37.919 114.862 39.195 115.253 40.472 115.612 C 40.488 116.648 40.535 117.7 40.579 118.749 C 41.083 118.822 41.588 118.892 42.092 118.961 C 42.049 117.981 42.001 116.999 41.982 116.03 C 47.166 117.345 52.374 117.917 57.499 117.917 C 57.805 117.917 58.107 117.903 58.412 117.899 C 58.495 118.787 58.597 119.674 58.692 120.562 C 59.194 120.593 59.703 120.622 60.21 120.651 C 60.109 119.725 60.003 118.799 59.916 117.87 C 66.944 117.628 73.781 116.355 80.174 114.507 C 81.166 117.856 82.191 121.217 83.267 124.568 C 81.332 125.047 79.381 125.456 77.426 125.827 C 77.47 126.223 77.5 126.621 77.498 126.961 L 77.496 127.146 L 77.495 127.16 L 77.496 127.145 C 77.494 127.209 77.486 127.277 77.483 127.343 C 79.577 126.949 81.665 126.51 83.734 125.997 C 84.719 129.031 85.74 132.047 86.792 135.038 C 83.18 136.038 79.458 136.854 75.675 137.447 C 75.567 137.952 75.462 138.47 75.358 139.004 C 79.427 138.395 83.423 137.535 87.288 136.462 C 88.099 138.737 88.926 140.992 89.775 143.22 C 84.915 144.51 79.697 145.529 74.298 146.111 C 74.248 146.613 74.203 147.119 74.164 147.626 C 79.816 147.033 85.266 145.97 90.324 144.62 C 90.869 146.028 91.412 147.438 91.972 148.82 C 92.268 149.55 92.567 150.272 92.868 150.994 C 86.808 152.57 80.476 153.669 74.052 154.06 C 74.078 154.563 74.112 155.062 74.158 155.555 C 80.764 155.152 87.255 154.016 93.453 152.391 C 94.249 154.272 95.059 156.124 95.884 157.942 C 88.567 159.821 81.697 160.812 75.275 161.153 C 75.334 161.331 75.388 161.513 75.451 161.687 C 75.568 162.006 75.697 162.316 75.832 162.623 C 82.293 162.249 89.19 161.228 96.519 159.327 C 97.004 160.375 97.5 161.395 97.995 162.416 C 98.327 161.938 98.646 161.444 98.951 160.938 C 98.631 160.271 98.306 159.618 97.99 158.938 C 98.793 158.719 99.602 158.489 100.414 158.249 C 100.707 157.649 100.984 157.04 101.249 156.426 C 99.94 156.828 98.641 157.21 97.357 157.558 C 96.528 155.739 95.715 153.885 94.915 151.998 C 97.992 151.148 100.981 150.177 103.884 149.136 C 104.084 148.536 104.281 147.938 104.487 147.333 C 101.219 148.536 97.822 149.644 94.328 150.603 C 94.004 149.824 93.681 149.044 93.362 148.257 C 92.824 146.929 92.294 145.584 91.771 144.231 C 97.648 142.584 102.958 140.612 107.461 138.704 C 107.685 138.063 107.906 137.422 108.129 136.78 C 103.39 138.843 97.646 141.027 91.231 142.819 C 90.379 140.585 89.546 138.324 88.731 136.042 C 95.848 133.964 102.515 131.265 108.413 128.425 C 108.872 128.204 109.315 127.981 109.765 127.759 L 110.625 129.458 C 110.728 129.151 110.836 128.842 110.937 128.536 C 111.054 128.181 111.171 127.815 111.287 127.445 L 111.107 127.089 C 111.226 127.028 111.338 126.969 111.456 126.909 C 111.653 126.265 111.844 125.601 112.021 124.93 C 111.497 125.204 110.97 125.479 110.431 125.753 L 106.376 117.741 C 108.353 116.759 110.266 115.722 112.109 114.641 C 111.9 114.181 111.658 113.743 111.382 113.328 C 109.557 114.399 107.66 115.427 105.698 116.402 L 101.03 107.179 C 99.764 106.841 98.457 106.554 97.131 106.313 C 92.342 108.65 86.957 110.878 81.182 112.644 C 80.346 109.792 79.552 106.962 78.777 104.149 C 78.219 104.099 77.687 104.052 77.185 104.012 C 78.007 107.009 78.853 110.026 79.745 113.071 C 73.43 114.897 66.685 116.148 59.781 116.376 C 59.41 112.174 59.148 107.981 58.981 103.843 C 62.917 103.79 66.731 103.389 70.411 102.715 C 69.608 102.409 68.862 102.03 68.208 101.565 C 65.195 102.03 62.1 102.306 58.924 102.345 C 58.791 98.577 58.728 94.86 58.728 91.238 C 58.728 89.466 58.742 87.718 58.769 85.995 C 62.164 85.692 65.58 85.121 68.945 84.341 C 68.97 84.267 68.99 84.196 69.015 84.12 C 69.166 83.648 69.319 83.16 69.475 82.665 C 65.942 83.524 62.354 84.162 58.797 84.488 C 58.932 77.582 59.258 71.124 59.659 65.415 C 62.227 65.187 64.87 64.748 67.553 64.082 C 68.482 68.498 69.557 73.394 70.768 78.621 C 71.07 77.716 71.383 76.834 71.704 76 C 70.702 71.61 69.799 67.474 69.004 63.696 C 71.267 63.071 73.547 62.304 75.824 61.359 C 75.917 61.32 76.004 61.276 76.097 61.237 L 80.028 69.005 C 80.542 68.929 81.071 68.866 81.612 68.815 L 77.468 60.625 C 80.471 59.269 83.267 57.714 85.816 55.998 C 89.126 59.685 92.901 63.952 96.942 68.623 C 97.578 68.602 98.217 68.575 98.857 68.544 C 94.565 63.57 90.559 59.037 87.061 55.139 C 89.354 53.497 91.433 51.734 93.259 49.882 C 97.623 52.509 102.728 55.708 108.222 59.394 C 105.381 62.813 102.295 65.915 99.26 68.527 C 100.06 68.487 100.86 68.442 101.657 68.394 C 104.322 65.978 106.989 63.239 109.473 60.238 C 112.212 62.093 115.041 64.075 117.91 66.151 C 118.438 65.933 118.955 65.688 119.452 65.415 C 116.377 63.177 113.345 61.052 110.414 59.065 C 111.97 57.106 113.448 55.064 114.78 52.942 C 115.38 51.988 115.947 51.018 116.486 50.037 C 119.443 51.306 122.473 52.686 125.529 54.159 C 125.656 53.669 125.779 53.174 125.899 52.673 C 122.957 51.26 120.041 49.933 117.193 48.708 C 118.894 45.402 120.209 41.98 120.961 38.524 C 123.295 39.054 125.66 39.644 128.033 40.265 C 128.063 39.735 128.073 39.218 128.068 38.712 C 125.776 38.114 123.497 37.561 121.245 37.05 C 121.518 35.444 121.67 33.833 121.671 32.227 C 121.674 30.429 121.488 28.639 121.095 26.873 C 121.574 26.908 122.057 26.95 122.538 26.988 C 121.354 25.853 120.085 24.916 118.841 24.275 C 118.803 24.256 118.754 24.236 118.714 24.217 C 118.841 24.554 118.981 24.889 119.091 25.229 C 114.448 24.928 109.924 24.76 105.682 24.677 C 105.505 24.854 105.336 25.046 105.167 25.241 C 104.968 25.541 104.777 25.845 104.591 26.158 C 109.275 26.234 114.333 26.414 119.521 26.762 C 119.957 28.558 120.168 30.383 120.171 32.227 C 120.172 33.717 120.031 35.22 119.779 36.727 C 115.695 35.828 111.709 35.055 107.925 34.405 C 105.895 34.056 103.923 33.742 102.021 33.457 C 102.077 32.884 102.113 32.314 102.113 31.747 C 102.113 31.578 102.096 31.411 102.09 31.242 C 101.684 32.203 101.319 33.106 100.995 33.876 C 100.551 34.933 100.152 36.21 99.737 37.581 C 99.118 39.635 98.464 41.898 97.665 43.817 C 97.267 44.774 96.833 45.643 96.366 46.348 C 97.185 45.296 97.929 44.227 98.583 43.146 C 103.554 44.851 109.166 46.94 115.102 49.445 C 114.599 50.354 114.068 51.255 113.51 52.144 C 112.19 54.247 110.72 56.277 109.169 58.223 C 103.787 54.61 98.773 51.459 94.457 48.852 C 94.142 49.206 93.811 49.519 93.451 49.757 C 92.571 50.338 91.313 50.727 89.883 50.995 C 88.687 52.039 87.413 53.052 86.053 54.018 C 85.277 53.156 84.536 52.337 83.818 51.545 C 83.13 51.566 82.465 51.579 81.832 51.589 C 82.768 52.617 83.759 53.711 84.802 54.87 C 82.354 56.503 79.672 57.989 76.789 59.285 L 72.947 51.693 C 72.385 51.692 71.823 51.69 71.262 51.685 L 75.418 59.898 C 75.36 59.921 75.307 59.949 75.249 59.973 C 73.06 60.882 70.868 61.62 68.696 62.225 C 67.863 58.226 67.154 54.658 66.571 51.628 C 66.063 51.619 65.554 51.611 65.039 51.602 C 65.639 54.725 66.374 58.435 67.245 62.614 C 64.701 63.248 62.198 63.673 59.77 63.902 C 59.986 60.979 60.22 58.26 60.454 55.805 C 60.6 54.272 60.746 52.848 60.888 51.524 C 60.39 51.515 59.891 51.506 59.383 51.497 C 59.01 54.986 58.61 59.219 58.257 64.023 C 57.362 64.078 56.478 64.112 55.609 64.112 C 54.065 64.113 52.572 64.016 51.131 63.847 C 51.546 62.723 51.962 61.621 52.38 60.564 C 53.729 57.151 55.074 54.104 56.332 51.449 C 55.791 51.442 55.244 51.435 54.689 51.429 C 53.069 54.891 51.317 58.983 49.611 63.637 C 47.73 63.33 45.965 62.872 44.338 62.274 C 44.531 61.959 44.724 61.629 44.916 61.32 C 47.244 57.584 49.57 54.272 51.747 51.403 C 51.136 51.399 50.514 51.397 49.882 51.395 C 47.875 54.087 45.762 57.126 43.643 60.526 C 43.404 60.909 43.167 61.314 42.929 61.705 C 42.661 61.586 42.387 61.474 42.128 61.347 C 40.763 60.676 39.532 59.892 38.45 58.998 C 40.746 56.227 43.027 53.712 45.221 51.443 C 44.529 51.45 43.834 51.447 43.148 51.425 C 41.249 53.428 39.295 55.612 37.33 57.981 C 36.03 56.679 35.008 55.184 34.309 53.5 C 34.27 53.407 34.244 53.309 34.208 53.215 C 35.435 52.159 36.613 51.199 37.761 50.288 C 37.302 50.017 36.914 49.684 36.613 49.276 C 35.675 50.025 34.709 50.817 33.719 51.661 C 33.413 50.453 33.247 49.181 33.247 47.848 C 33.247 47.564 33.257 47.276 33.271 46.988 C 34.351 46.338 35.425 45.726 36.495 45.132 C 36.86 44.313 37.369 43.461 37.924 42.653 C 36.448 43.429 34.954 44.253 33.448 45.138 C 33.672 43.547 34.085 41.906 34.68 40.247 C 37.106 39.327 39.526 38.532 41.869 37.847 C 42.509 37.136 43.157 36.436 43.813 35.746 C 43.729 35.768 43.647 35.789 43.562 35.811 C 40.948 36.52 38.2 37.367 35.424 38.371 C 36.25 36.477 37.3 34.576 38.56 32.716 C 40.504 32.5 42.396 32.396 44.193 32.396 C 45.177 32.396 46.133 32.424 47.058 32.473 C 47.552 31.998 48.055 31.532 48.559 31.069 C 47.177 30.961 45.718 30.896 44.193 30.896 C 42.758 30.896 41.267 30.953 39.733 31.083 C 39.847 30.931 39.956 30.779 40.073 30.629 C 41.13 29.265 42.304 27.936 43.576 26.658 C 46.459 27.226 49.006 27.959 51.199 28.733 C 51.643 28.358 52.093 27.992 52.544 27.626 C 50.365 26.809 47.819 26.021 44.911 25.392 C 46.672 23.761 48.595 22.227 50.684 20.841 L 55.099 25.63 C 55.501 25.33 55.915 25.041 56.324 24.748 L 51.976 20.03 C 53.982 18.793 56.104 17.673 58.357 16.738 C 58.705 16.593 59.054 16.469 59.401 16.334 C 59.546 18.594 59.777 20.564 60.043 22.25 C 60.501 21.961 60.96 21.674 61.427 21.394 C 61.192 19.782 60.992 17.917 60.869 15.792 C 62.845 15.109 64.818 14.579 66.773 14.201 C 65.958 16.061 65.338 17.829 64.857 19.473 C 65.475 19.148 66.095 18.826 66.727 18.516 C 67.21 17.053 67.805 15.506 68.556 13.893 C 70.601 13.587 72.616 13.44 74.58 13.44 C 74.681 13.44 74.778 13.448 74.879 13.448 C 74.346 14.195 73.847 14.931 73.398 15.644 C 73.615 15.563 73.826 15.474 74.046 15.394 C 74.599 15.193 75.168 15.009 75.737 14.824 C 76.043 14.386 76.363 13.944 76.697 13.5 C 77.635 13.55 78.556 13.638 79.461 13.757 C 80.701 13.445 81.958 13.164 83.226 12.92 C 81.489 12.524 79.686 12.235 77.817 12.085 C 80.034 9.398 82.838 6.748 86.3 4.661 C 89.411 4.706 92.69 5.078 96.028 5.944 C 91.492 7.987 87.489 10.401 84.118 12.755 C 85.291 12.545 86.464 12.366 87.633 12.212 C 90.764 10.209 94.33 8.245 98.271 6.599 C 100.494 7.325 102.73 8.29 104.947 9.533 C 102.385 10.133 99.951 10.831 97.642 11.583 C 97.69 11.584 97.74 11.586 97.789 11.587 C 98.121 11.582 98.446 11.56 98.78 11.56 C 100.027 11.559 101.29 11.61 102.559 11.685 C 103.938 11.313 105.35 10.961 106.807 10.648 C 107.642 11.18 108.469 11.774 109.294 12.397 C 110.314 12.55 111.334 12.722 112.354 12.915 C 112.124 12.714 111.902 12.512 111.662 12.315 C 110.744 11.559 109.816 10.87 108.883 10.224 C 111.462 9.736 114.153 9.359 116.936 9.112 C 120.067 10.54 123.142 12.337 125.811 14.601 C 126.459 15.151 127.074 15.737 127.671 16.343 C 126.804 16.304 125.949 16.295 125.089 16.274 C 127.323 17.031 129.494 17.858 131.586 18.74 C 131.43 18.513 131.288 18.274 131.124 18.055 C 133.519 18.238 135.925 18.499 138.331 18.854 C 138.5 19.099 138.669 19.344 138.839 19.6 C 139.604 20.758 140.359 22.044 141.079 23.436 C 141.346 23.591 141.624 23.743 141.884 23.899 C 142.406 24.212 142.92 24.54 143.435 24.865 C 142.479 22.757 141.431 20.85 140.355 19.184 C 142.534 19.553 144.704 20.003 146.859 20.539 C 147.549 21.289 148.261 22.134 148.97 23.092 C 150.472 25.121 151.954 27.631 153.161 30.676 C 152.313 30.416 151.445 30.17 150.565 29.935 C 151.541 30.712 152.495 31.516 153.434 32.337 C 153.557 32.376 153.687 32.41 153.809 32.45 C 153.841 32.545 153.866 32.651 153.897 32.748 C 154.62 33.389 155.332 34.042 156.033 34.708 C 155.889 34.142 155.738 33.587 155.575 33.05 C 157.354 33.678 159.036 34.363 160.613 35.101 C 161.168 37 161.647 38.955 162.032 41.004 C 162.675 41.752 163.308 42.508 163.926 43.275 C 163.562 40.71 163.049 38.305 162.425 36 C 164.279 36.978 165.961 38.041 167.409 39.206 C 167.48 39.264 167.562 39.3 167.644 39.327 C 167.98 41.222 168.56 45.034 168.838 49.989 C 169.388 50.82 169.922 51.659 170.443 52.505 C 170.175 43.747 168.86 37.704 168.853 37.671 C 168.764 37.267 168.364 37.011 167.96 37.1 C 167.768 37.142 167.612 37.258 167.508 37.408 C 165.83 36.166 163.938 35.041 161.857 34.027 C 161.256 32.038 160.586 30.105 159.874 28.185 C 159.73 27.796 159.299 27.598 158.91 27.742 C 158.522 27.886 158.324 28.317 158.468 28.706 C 159.018 30.191 159.539 31.676 160.022 33.182 C 158.429 32.486 156.742 31.848 154.984 31.259 C 153.571 27.32 151.698 24.169 149.82 21.728 C 149.639 21.492 149.456 21.267 149.274 21.043 C 149.523 20.977 149.735 20.796 149.809 20.53 C 149.919 20.13 149.685 19.717 149.286 19.607 C 148.745 19.458 148.201 19.333 147.658 19.195 C 144.709 16.077 142.227 14.719 142.176 14.691 C 141.813 14.493 141.356 14.627 141.159 14.991 C 140.961 15.355 141.096 15.81 141.459 16.008 L 141.489 16.025 C 141.707 16.149 143.043 16.939 144.813 18.519 C 142.942 18.11 141.064 17.751 139.185 17.461 C 135.528 12.339 132.039 9.74 131.995 9.706 C 131.662 9.459 131.192 9.529 130.945 9.862 C 130.699 10.194 130.769 10.664 131.102 10.911 L 131.136 10.937 C 131.469 11.191 134.136 13.293 137.108 17.175 C 134.674 16.852 132.244 16.616 129.83 16.461 C 128.677 15.145 127.412 13.944 126.061 12.864 C 124.134 11.325 122.041 10.03 119.898 8.907 C 121.242 8.838 122.6 8.791 123.982 8.792 C 124.411 8.792 124.841 8.795 125.271 8.803 C 125.686 8.81 126.027 8.479 126.034 8.065 C 126.041 7.651 125.711 7.31 125.297 7.303 C 124.856 7.295 124.419 7.292 123.982 7.292 C 121.66 7.293 119.398 7.404 117.189 7.59 C 113.702 6.034 110.187 4.922 107.08 4.146 C 106.366 3.968 105.676 3.808 105.011 3.663 C 105.01 3.596 105.013 3.528 104.993 3.461 C 104.877 3.063 104.46 2.836 104.063 2.952 C 103.725 3.052 103.393 3.16 103.059 3.264 C 99.323 2.555 96.818 2.379 96.796 2.377 C 96.383 2.348 96.024 2.659 95.995 3.073 C 95.966 3.486 96.277 3.844 96.691 3.873 C 96.691 3.873 96.802 3.881 97.025 3.901 C 97.536 3.947 98.614 4.06 100.084 4.28 C 99.452 4.514 98.83 4.757 98.216 5.008 C 94.495 3.85 90.822 3.31 87.352 3.183 C 87.35 3.179 87.35 3.174 87.348 3.17 C 87.145 2.809 86.688 2.68 86.326 2.883 C 86.175 2.969 86.039 3.066 85.89 3.154 C 85.815 3.153 85.737 3.15 85.662 3.15 C 73.655 3.155 64.436 7.771 64.377 7.797 C 64.006 7.982 63.856 8.433 64.041 8.803 C 64.227 9.174 64.677 9.324 65.048 9.139 L 65.142 9.093 C 65.592 8.876 67.639 7.935 70.75 6.975 C 69.478 8.877 68.417 10.744 67.54 12.546 C 65.311 12.921 63.057 13.481 60.799 14.236 C 60.763 13.282 60.738 12.298 60.738 11.25 C 60.738 10.932 60.739 10.609 60.743 10.282 C 60.748 9.868 60.416 9.528 60.002 9.523 C 59.588 9.519 59.248 9.851 59.243 10.265 C 59.239 10.598 59.238 10.926 59.238 11.25 C 59.238 12.489 59.271 13.646 59.318 14.758 C 58.806 14.95 58.294 15.14 57.782 15.352 C 55.359 16.358 53.086 17.569 50.941 18.909 L 48.277 16.019 C 47.996 15.714 47.522 15.695 47.218 15.976 C 46.913 16.257 46.894 16.731 47.175 17.036 L 49.649 19.72 C 47.253 21.328 45.065 23.125 43.093 25.041 C 41.036 24.664 38.841 24.363 36.474 24.197 C 36.061 24.168 35.702 24.48 35.673 24.893 C 35.672 24.912 35.68 24.929 35.68 24.947 C 35.653 24.968 35.622 24.98 35.598 25.004 C 35.577 25.026 32.546 28.172 29.178 33.178 C 27.891 33.59 26.598 34.047 25.303 34.599 C 24.922 34.761 24.744 35.202 24.907 35.583 C 25.069 35.964 25.51 36.142 25.891 35.979 C 26.547 35.699 27.203 35.452 27.858 35.21 C 26.258 37.779 24.657 40.725 23.336 43.92 C 20.241 45.719 17.316 47.788 14.736 50.177 C 14.453 50.191 14.189 50.362 14.076 50.644 L 14.076 50.643 C 14.074 50.648 14.033 50.754 13.971 50.923 C 13.73 51.159 13.481 51.387 13.246 51.629 C 12.958 51.926 12.966 52.401 13.264 52.69 C 13.291 52.716 13.326 52.727 13.356 52.749 C 12.661 55 11.661 58.888 11.282 63.565 C 10.411 64.616 9.558 65.691 8.74 66.809 C 8.658 66.561 8.459 66.358 8.184 66.303 C 7.777 66.223 7.383 66.487 7.302 66.893 C 7.298 66.914 7.122 67.81 6.976 69.346 C 6.336 70.314 5.715 71.303 5.12 72.318 C 4.911 72.676 5.031 73.135 5.389 73.345 C 5.746 73.554 6.205 73.434 6.415 73.076 C 6.537 72.868 6.67 72.671 6.794 72.465 C 6.786 72.82 6.78 73.186 6.78 73.567 C 6.78 76.666 7.089 80.616 8.166 84.894 C 7.264 86.986 6.45 89.15 5.739 91.382 C 4.497 86.656 4.387 83.105 4.387 82.056 C 4.387 81.947 4.389 81.865 4.39 81.812 L 4.392 81.738 C 4.407 81.324 4.085 80.976 3.671 80.96 C 3.257 80.943 2.908 81.266 2.893 81.68 C 2.892 81.689 2.887 81.818 2.887 82.056 C 2.888 83.374 3.043 88.043 4.954 94.043 C 4.556 95.497 4.202 96.978 3.898 98.485 C 3.764 98.19 3.457 98.001 3.12 98.05 C 2.71 98.108 2.426 98.489 2.485 98.899 C 2.49 98.931 2.672 100.144 3.275 102.12 C 3.063 103.606 2.894 105.113 2.783 106.648 C 2.753 107.062 3.064 107.421 3.478 107.45 C 3.891 107.479 4.249 107.169 4.279 106.756 C 4.314 106.268 4.359 105.784 4.405 105.301 C 5.479 107.967 7.114 111.249 9.604 114.754 C 10.255 115.671 10.977 116.603 11.748 117.54 C 11.604 119.156 11.499 120.794 11.433 122.454 C 8.961 119.272 7.322 116.376 6.281 114.201 C 5.688 112.962 5.288 111.956 5.038 111.265 C 4.913 110.919 4.825 110.652 4.77 110.475 L 4.709 110.274 L 4.692 110.216 C 4.585 109.816 4.173 109.579 3.773 109.687 C 3.373 109.794 3.136 110.206 3.244 110.606 C 3.264 110.68 5.01 117.128 11.363 124.761 C 11.364 124.763 11.365 124.765 11.367 124.766 C 11.357 125.332 11.344 125.897 11.344 126.469 C 11.344 127.917 11.386 129.386 11.449 130.865 C 11.436 130.849 11.42 130.831 11.406 130.815 C 10.552 129.794 9.942 128.959 9.548 128.384 C 9.351 128.097 9.208 127.873 9.115 127.725 L 9.014 127.558 L 8.991 127.519 L 8.985 127.51 C 8.781 127.149 8.323 127.022 7.963 127.228 C 7.603 127.432 7.477 127.89 7.681 128.25 L 7.681 128.249 C 7.704 128.292 8.871 130.33 11.58 133.282 C 11.692 134.98 11.838 136.693 12.038 138.431 C 12.086 138.843 12.458 139.138 12.869 139.09 C 13.281 139.042 13.576 138.671 13.528 138.259 C 13.4 137.151 13.296 136.056 13.204 134.966 C 14.713 136.458 16.551 138.099 18.786 139.795 C 21.026 141.495 23.677 143.24 26.728 144.933 C 26.095 144.018 25.482 143.081 24.886 142.13 C 22.96 140.951 21.227 139.764 19.693 138.601 Z " fill="rgb(254,254,254)"/><path d=" M 95.47 47.448 C 95.464 47.458 95.46 47.468 95.454 47.477 C 95.473 47.456 95.49 47.433 95.508 47.411 C 95.495 47.424 95.482 47.435 95.47 47.448 Z " fill="rgb(254,254,254)"/><path d=" M 175.019 132.77 C 174.783 131.636 174.512 130.505 174.197 129.378 C 175.929 126.881 177.475 124.424 178.848 122.045 C 181.119 118.109 182.925 114.39 184.356 111.044 C 184.729 112.3 185.056 113.577 185.344 114.87 C 182.862 120.179 179.702 126.264 175.019 132.77 Z  M 157.853 156.642 C 157.637 155.726 157.385 154.79 157.09 153.829 C 162.809 149.13 167.485 144.448 171.347 139.9 C 172.324 138.749 173.244 137.608 174.123 136.476 C 174.284 137.714 174.395 138.953 174.446 140.192 C 169.04 146.525 163.479 151.976 157.853 156.642 Z  M 135.856 175.987 L 134.58 173.467 C 141.955 169.884 149.455 165.266 156.867 159.359 C 157.067 160.606 157.183 161.793 157.19 162.899 C 150.225 168.402 142.976 172.665 135.856 175.987 Z  M 119.295 182.266 C 117.103 182.917 114.968 183.481 112.892 183.981 C 112.332 183.295 111.777 182.583 111.227 181.853 C 117.071 180.442 123.181 178.496 129.428 175.831 C 130.689 175.293 131.958 174.716 133.229 174.118 L 134.495 176.62 C 129.289 178.968 124.166 180.817 119.295 182.266 Z  M 89.032 187.403 C 88.023 186.685 87.057 185.907 86.109 185.104 C 93.028 184.957 101.021 184.171 109.633 182.223 C 110.176 182.955 110.724 183.667 111.276 184.36 C 101.891 186.495 93.983 187.195 89.032 187.403 Z  M 67.19 182.419 C 65.229 182.116 63.697 181.813 62.659 181.587 C 62.14 181.475 61.744 181.38 61.48 181.315 C 61.433 181.304 61.412 181.298 61.374 181.288 C 61.052 180.764 60.735 180.239 60.423 179.714 C 65.768 180.607 72.629 181.429 80.376 181.604 C 80.997 182.295 81.634 182.966 82.287 183.618 C 76.035 183.546 70.856 182.984 67.19 182.419 Z  M 187.424 112.134 C 187.047 111.964 186.603 112.13 186.432 112.508 C 186.407 112.562 186.382 112.616 186.357 112.669 C 186.028 111.392 185.658 110.132 185.248 108.89 C 188.452 100.884 189.373 95.519 189.381 95.478 C 189.451 95.069 189.177 94.682 188.768 94.612 C 188.359 94.543 187.973 94.817 187.902 95.226 L 187.88 95.349 C 187.736 96.119 186.867 100.437 184.483 106.722 C 184.021 105.481 183.531 104.253 182.991 103.05 C 187.626 90.095 188.166 80.558 188.17 80.507 C 188.193 80.093 187.877 79.739 187.463 79.716 C 187.05 79.693 186.695 80.009 186.672 80.423 C 186.672 80.423 186.67 80.471 186.662 80.577 C 186.574 81.793 185.854 90.047 182.077 101.117 C 181.792 100.534 181.485 99.962 181.184 99.388 C 181.102 100.306 180.995 101.22 180.881 102.131 C 181.043 102.465 181.214 102.793 181.369 103.13 C 181.048 104.011 180.698 104.914 180.334 105.825 C 179.903 108.337 179.362 110.813 178.719 113.245 C 178.804 113.07 178.894 112.894 178.977 112.72 C 180.224 110.099 181.3 107.546 182.233 105.097 C 182.746 106.323 183.224 107.567 183.654 108.831 C 182.001 112.897 179.759 117.624 176.743 122.665 C 175.79 124.257 174.757 125.882 173.646 127.524 C 173.646 127.523 173.645 127.522 173.645 127.522 C 172.38 130.324 170.997 133.008 169.528 135.564 C 170.775 134.025 171.974 132.489 173.073 130.965 C 173.364 132.112 173.603 133.263 173.807 134.413 C 172.688 135.901 171.496 137.406 170.203 138.93 C 167.215 142.448 163.722 146.054 159.627 149.688 C 157.418 152.376 155.133 154.897 152.722 157.257 C 153.786 156.456 154.83 155.653 155.831 154.853 C 156.116 155.829 156.354 156.772 156.552 157.688 C 149.019 163.77 141.394 168.489 133.902 172.128 L 133.419 171.172 C 132.979 171.399 132.527 171.621 132.078 171.844 L 132.552 172.78 C 131.311 173.362 130.071 173.925 128.84 174.451 C 122.455 177.175 116.21 179.147 110.255 180.548 C 110.015 180.216 109.777 179.87 109.539 179.528 C 109.005 179.624 108.46 179.716 107.905 179.804 C 108.16 180.171 108.414 180.54 108.67 180.899 C 99.718 182.872 91.467 183.574 84.432 183.624 C 83.747 182.982 83.078 182.32 82.427 181.636 C 82.746 181.638 83.063 181.642 83.385 181.642 C 88.1 181.642 93.098 181.384 98.244 180.753 C 94.503 180.832 90.738 180.569 87.064 180.083 C 85.822 180.118 84.592 180.142 83.385 180.142 C 82.598 180.142 81.821 180.132 81.051 180.118 C 80.7 179.72 80.368 179.296 80.027 178.885 C 79.245 178.724 78.471 178.556 77.706 178.382 C 78.145 178.95 78.581 179.521 79.037 180.067 C 71.334 179.813 64.574 178.931 59.434 178.022 C 59.01 177.288 58.595 176.554 58.189 175.819 C 62.989 176.722 68.509 177.414 74.625 177.633 C 72.405 177.063 70.244 176.421 68.139 175.707 C 64.178 175.329 60.534 174.766 57.257 174.109 C 56.683 173.036 56.125 171.965 55.589 170.895 C 56.188 171.015 56.798 171.128 57.414 171.239 C 55.852 170.457 54.323 169.632 52.83 168.763 C 47.969 167.628 43.749 166.247 40.231 164.864 C 37.664 163.854 35.469 162.846 33.659 161.935 C 33.322 160.988 32.999 160.046 32.69 159.108 C 36.195 160.651 40.326 162.216 44.992 163.593 C 43.847 162.743 42.725 161.864 41.626 160.96 C 39.115 160.114 36.79 159.226 34.678 158.334 C 33.764 157.948 32.9 157.563 32.063 157.183 C 31.731 156.121 31.419 155.065 31.121 154.015 C 32.788 154.819 34.579 155.608 36.469 156.368 C 36.3 156.206 36.127 156.05 35.959 155.886 C 35.188 155.133 34.431 154.351 33.683 153.552 C 32.614 153.069 31.575 152.581 30.593 152.087 C 30.326 151.088 30.074 150.094 29.836 149.104 C 29.096 148.177 28.372 147.228 27.668 146.255 C 28.011 147.879 28.382 149.513 28.803 151.163 C 24.171 148.698 20.611 146.243 18.21 144.399 C 16.989 143.462 16.066 142.683 15.451 142.141 C 15.144 141.869 14.913 141.657 14.76 141.515 L 14.59 141.353 L 14.538 141.302 C 14.244 141.01 13.769 141.012 13.478 141.306 C 13.186 141.6 13.188 142.075 13.481 142.366 C 13.521 142.404 18.668 147.508 28.323 152.609 C 28.647 152.78 28.987 152.95 29.32 153.121 C 29.61 154.185 29.917 155.253 30.24 156.327 C 27.55 155.03 25.331 153.806 23.65 152.806 C 22.386 152.054 21.42 151.428 20.773 150.991 C 20.449 150.773 20.205 150.603 20.043 150.487 L 19.862 150.358 L 19.806 150.316 C 19.475 150.068 19.004 150.136 18.756 150.468 C 18.508 150.8 18.576 151.27 18.907 151.518 C 18.94 151.54 23.198 154.722 30.842 158.274 C 31.121 159.151 31.41 160.03 31.712 160.914 C 31.378 160.731 31.06 160.555 30.765 160.388 C 29.695 159.778 28.886 159.272 28.347 158.921 C 28.077 158.745 27.875 158.607 27.742 158.515 L 27.594 158.411 L 27.549 158.378 C 27.215 158.134 26.746 158.206 26.501 158.54 C 26.256 158.874 26.328 159.343 26.662 159.589 L 26.662 159.588 C 26.689 159.606 28.681 161.06 32.442 162.996 C 32.823 164.052 33.217 165.11 33.632 166.175 C 33.781 166.562 34.217 166.753 34.603 166.603 C 34.988 166.452 35.18 166.017 35.029 165.632 C 34.813 165.074 34.61 164.522 34.402 163.968 C 38.965 166.146 45.471 168.687 53.719 170.501 C 54.243 171.568 54.783 172.638 55.345 173.709 C 53.009 173.195 50.873 172.644 48.968 172.091 C 45.422 171.061 42.654 170.032 40.777 169.263 C 39.839 168.878 39.122 168.558 38.644 168.336 C 38.404 168.225 38.224 168.138 38.105 168.079 L 37.972 168.013 L 37.931 167.993 C 37.563 167.803 37.11 167.947 36.921 168.315 C 36.731 168.684 36.875 169.136 37.243 169.325 C 37.289 169.349 44.311 172.966 56.266 175.441 C 56.667 176.183 57.077 176.924 57.497 177.666 C 55.065 177.199 53.086 176.747 51.663 176.396 C 50.822 176.188 50.173 176.017 49.736 175.896 C 49.518 175.835 49.352 175.788 49.241 175.757 C 49.132 175.725 49.079 175.709 49.079 175.708 C 48.683 175.589 48.264 175.813 48.145 176.21 C 48.024 176.606 48.249 177.025 48.646 177.146 L 48.646 177.145 C 48.668 177.151 52.352 178.261 58.484 179.377 C 59.059 180.361 59.644 181.347 60.251 182.332 C 60.272 182.364 60.302 182.384 60.325 182.411 C 60.362 182.456 60.396 182.501 60.442 182.536 C 60.488 182.57 60.54 182.589 60.592 182.612 C 60.626 182.627 60.654 182.651 60.691 182.662 L 60.691 182.661 C 60.692 182.661 60.712 182.667 60.717 182.668 L 60.717 182.669 C 61.009 182.747 69.918 185.132 83.607 185.132 C 83.689 185.132 83.773 185.13 83.855 185.13 C 84.755 185.95 85.692 186.726 86.652 187.474 C 86.18 187.48 85.739 187.485 85.367 187.485 C 84.749 187.485 84.273 187.478 83.954 187.469 C 83.635 187.461 83.478 187.453 83.478 187.453 C 83.064 187.433 82.712 187.752 82.691 188.165 C 82.671 188.579 82.99 188.931 83.404 188.951 C 83.415 188.952 84.104 188.985 85.367 188.985 C 89.462 188.985 99.608 188.624 112.329 185.653 C 112.735 186.138 113.142 186.62 113.553 187.081 C 113.828 187.392 114.302 187.419 114.611 187.144 C 114.921 186.868 114.948 186.394 114.673 186.085 C 114.438 185.82 114.205 185.538 113.971 185.266 C 115.841 184.804 117.76 184.286 119.722 183.704 C 124.67 182.233 129.878 180.353 135.174 177.96 L 135.814 179.227 C 136.002 179.596 136.453 179.744 136.822 179.557 C 137.191 179.37 137.34 178.919 137.152 178.549 L 136.534 177.327 C 143.429 174.104 150.443 169.995 157.22 164.761 C 157.329 164.999 157.552 165.18 157.832 165.202 C 158.245 165.235 158.606 164.927 158.64 164.514 C 158.662 164.224 158.665 163.921 158.674 163.622 C 162.718 160.384 166.667 156.744 170.436 152.628 C 170.715 152.323 170.694 151.849 170.389 151.569 C 170.083 151.289 169.608 151.31 169.329 151.616 C 165.898 155.362 162.313 158.698 158.645 161.706 C 158.576 160.61 158.427 159.468 158.204 158.283 C 163.719 153.766 169.174 148.522 174.481 142.446 C 174.477 142.798 174.475 143.147 174.461 143.499 C 174.444 143.912 174.767 144.261 175.181 144.278 C 175.594 144.294 175.943 143.972 175.96 143.558 C 175.981 143.005 175.992 142.453 175.992 141.901 C 175.992 141.508 175.969 141.115 175.958 140.723 C 177.747 138.61 179.522 136.422 181.271 134.112 C 181.521 133.782 181.457 133.312 181.127 133.062 C 180.797 132.812 180.326 132.876 180.076 133.206 C 178.679 135.052 177.264 136.808 175.842 138.522 C 175.743 137.276 175.602 136.032 175.399 134.792 C 180.19 128.335 183.477 122.26 186.029 116.928 C 186.184 117.022 186.369 117.067 186.562 117.03 C 186.968 116.952 187.234 116.559 187.155 116.151 C 187.084 115.78 186.993 115.417 186.915 115.049 C 187.218 114.397 187.514 113.753 187.798 113.127 C 187.969 112.75 187.802 112.306 187.424 112.134 Z " fill="rgb(254,254,254)"/><path d=" M 175.281 56.6 C 175.281 57.951 175.232 59.39 175.144 60.888 C 174.978 60.74 174.804 60.598 174.635 60.451 C 175.242 61.842 175.806 63.257 176.325 64.71 C 176.345 64.519 176.375 64.319 176.393 64.13 C 177.509 65.245 178.561 66.399 179.544 67.591 C 179.413 69.429 179.203 71.368 178.922 73.372 C 179.206 74.491 179.482 75.629 179.751 76.799 C 179.783 76.938 179.809 77.076 179.84 77.214 C 180.337 74.469 180.689 71.832 180.915 69.344 C 181.946 70.73 182.89 72.163 183.728 73.651 C 183.486 78.066 182.924 83.681 181.457 90.003 C 181.486 90.851 181.506 91.697 181.506 92.541 C 181.507 93.694 181.473 94.843 181.42 95.988 C 183.714 88.467 184.65 81.668 185.062 76.268 C 185.512 77.238 185.932 78.224 186.297 79.237 C 186.438 79.627 186.867 79.829 187.257 79.688 C 187.646 79.547 187.849 79.118 187.708 78.728 C 187.029 76.848 186.197 75.048 185.247 73.314 C 185.325 71.796 185.374 70.411 185.413 69.213 C 185.427 68.799 185.102 68.452 184.688 68.439 C 184.273 68.425 183.927 68.75 183.914 69.164 C 183.896 69.719 183.875 70.318 183.852 70.942 C 183.006 69.619 182.078 68.342 181.085 67.105 C 181.201 65.299 181.259 63.573 181.259 61.956 C 181.259 60.606 181.222 59.325 181.155 58.124 C 181.133 57.71 180.778 57.393 180.365 57.416 C 179.951 57.439 179.635 57.793 179.657 58.207 C 179.723 59.38 179.759 60.632 179.759 61.956 C 179.759 63.06 179.724 64.228 179.67 65.426 C 178.688 64.314 177.649 63.237 176.558 62.195 C 176.704 60.227 176.78 58.347 176.781 56.6 C 176.779 53.156 176.504 50.216 175.941 48.017 C 175.839 47.616 175.43 47.374 175.028 47.477 C 174.628 47.58 174.386 47.988 174.488 48.39 C 175.003 50.392 175.282 53.24 175.281 56.6 Z " fill="rgb(254,254,254)"/><path d=" M 163.166 145.157 C 154.114 156.914 144.134 165.526 129.306 171.969 C 122 175.136 115.465 177.283 105.157 178.437 C 103.102 178.666 101.02 178.771 98.93 178.771 C 91.645 178.771 84.275 177.5 77.721 175.888 C 61.985 172.017 49.188 164.444 38.657 154.17 C 31.22 146.911 24.831 137.478 20.934 126.728 C 20.563 125.704 20.099 124.329 19.731 122.884 C 19.362 121.44 19.095 119.923 19.097 118.655 C 19.096 117.988 19.171 117.395 19.317 116.928 C 19.465 116.458 19.671 116.127 19.935 115.895 C 20.127 115.725 20.414 115.576 20.814 115.473 C 21.211 115.369 21.71 115.315 22.274 115.316 C 23.775 115.313 25.7 115.692 27.482 116.136 C 29.275 116.579 30.907 117.075 32.02 117.294 C 43.937 119.625 55.029 120.525 68.579 121.052 C 71.316 121.152 73.218 121.113 74.424 121.442 C 75.032 121.604 75.462 121.824 75.867 122.191 C 76.27 122.561 76.661 123.112 77.052 123.975 L 77.051 123.972 C 77.079 124.03 77.138 124.203 77.191 124.421 C 77.357 125.081 77.501 126.175 77.498 126.961 L 77.496 127.146 L 77.495 127.16 L 77.496 127.145 C 77.411 130.069 76.516 133.591 75.788 136.906 C 74.863 141.131 73.992 146.576 73.991 151.817 C 73.992 155.331 74.379 158.757 75.451 161.687 C 75.988 163.15 76.701 164.492 77.636 165.643 C 78.569 166.792 79.73 167.745 81.125 168.411 C 82.714 169.164 84.895 169.627 87.273 169.631 C 89.292 169.63 91.448 169.288 93.45 168.427 C 96.777 166.986 99.344 164.315 101.359 161.188 C 103.375 158.055 104.855 154.439 105.982 150.99 C 108.391 143.593 111.324 135.611 113.886 127.85 C 114.865 124.857 115.951 121.239 115.956 117.835 C 115.956 116.461 115.776 115.113 115.309 113.86 C 114.584 111.915 113.313 110.331 111.723 109.07 C 109.332 107.176 106.229 105.963 102.902 105.105 C 99.573 104.251 96.008 103.763 92.684 103.397 C 88.636 102.952 82.825 102.294 79 101.992 C 77.075 101.842 74.833 101.537 72.965 100.859 C 72.031 100.522 71.195 100.094 70.532 99.571 C 69.866 99.047 69.373 98.44 69.066 97.698 C 68.76 96.955 68.643 96.258 68.642 95.552 C 68.634 94.022 69.24 92.418 69.811 90.674 C 70.649 88.08 71.125 86.049 71.967 83.426 C 72.748 80.99 73.571 78.199 74.462 75.814 C 74.906 74.622 75.368 73.533 75.835 72.656 C 76.299 71.778 76.782 71.119 77.175 70.79 C 78.151 69.946 79.84 69.354 81.9 69.029 C 83.957 68.698 86.36 68.611 88.752 68.611 C 91.099 68.611 93.436 68.693 95.46 68.694 C 95.705 68.694 95.945 68.692 96.18 68.69 C 99.466 68.655 102.989 68.454 106.3 68.222 C 109.918 67.964 113.514 67.78 116.233 67.272 C 117.951 66.948 119.985 66.341 121.816 65.358 C 123.637 64.375 125.302 63.002 126.083 61.044 C 127.368 57.781 128.566 53.585 129.483 49.194 C 130.23 45.607 131.079 41.523 131.082 37.911 C 131.082 37.093 131.038 36.297 130.936 35.533 C 130.561 32.783 129.222 30.079 127.461 27.764 C 125.695 25.452 123.506 23.525 121.298 22.386 C 119.413 21.425 116.505 20.504 113.488 20.498 C 112.414 20.498 111.325 20.618 110.271 20.912 C 108.959 21.279 107.841 22.071 106.879 23.06 C 105.435 24.548 104.3 26.501 103.343 28.46 C 102.389 30.417 101.622 32.388 100.995 33.876 C 100.551 34.933 100.152 36.21 99.737 37.581 C 99.118 39.635 98.464 41.898 97.665 43.817 C 97.266 44.775 96.832 45.646 96.364 46.352 C 95.897 47.06 95.398 47.595 94.899 47.923 C 94.325 48.307 93.423 48.642 92.345 48.883 C 90.728 49.25 88.727 49.425 86.788 49.509 C 84.846 49.594 82.966 49.592 81.532 49.626 C 79.494 49.676 77.523 49.695 75.569 49.695 C 67.949 49.696 60.584 49.392 50.654 49.392 C 49.351 49.393 47.914 49.449 46.497 49.449 C 44.52 49.453 42.578 49.328 41.209 48.861 C 40.523 48.63 39.994 48.325 39.633 47.958 C 39.273 47.586 39.044 47.162 38.95 46.516 L 38.935 46.291 C 38.933 45.921 39.049 45.406 39.28 44.833 C 39.966 43.096 41.63 40.931 42.79 39.59 C 51.87 29.003 62.328 20.454 76.388 15.334 C 82.278 13.186 89.274 12.005 95.508 11.651 C 96.587 11.589 97.678 11.56 98.78 11.56 C 113.793 11.55 130.672 17.174 141.884 23.899 C 154.279 31.324 164.56 42.251 171.715 54.632 C 175.561 61.282 177.806 68.326 179.751 76.799 C 180.957 82.048 181.506 87.324 181.506 92.541 C 181.513 112.717 173.268 132.03 163.166 145.157 Z  M 181.7 76.352 C 179.735 67.794 177.434 60.525 173.447 53.631 C 166.131 40.976 155.631 29.804 142.911 22.183 C 131.369 15.279 114.285 9.569 98.78 9.56 C 97.642 9.56 96.512 9.59 95.394 9.654 C 91.108 9.9 86.491 10.529 82.06 11.582 C 78.164 12.221 74.265 13.158 70.704 14.455 C 56.26 19.709 45.491 28.531 36.272 39.288 C 35.458 40.236 34.408 41.546 33.539 42.943 C 33.104 43.643 32.714 44.364 32.423 45.089 C 32.135 45.815 31.938 46.545 31.935 47.291 C 31.935 47.456 31.945 47.623 31.968 47.789 C 32.106 48.82 32.556 49.709 33.21 50.364 C 34.196 51.352 35.53 51.836 36.957 52.114 C 38.391 52.388 39.957 52.448 41.497 52.449 C 42.964 52.448 44.408 52.392 45.654 52.392 C 55.541 52.392 62.893 52.695 70.569 52.695 C 72.536 52.695 74.524 52.675 76.58 52.625 C 78.439 52.58 81.2 52.601 83.892 52.385 C 85.239 52.276 86.571 52.108 87.787 51.834 C 88.408 51.691 88.999 51.523 89.549 51.315 C 90.668 51.206 91.772 51.063 92.787 50.834 C 94.002 50.556 95.103 50.182 96.002 49.592 C 97.078 48.875 97.885 47.797 98.571 46.56 C 99.595 44.701 100.347 42.439 101.014 40.272 C 101.677 38.108 102.255 36.031 102.838 34.652 C 103.692 32.62 104.75 29.867 106.099 27.515 C 106.772 26.34 107.516 25.272 108.313 24.455 C 108.667 24.09 109.03 23.787 109.398 23.531 C 111.698 23.691 113.977 24.438 115.384 25.165 C 117.25 26.121 119.273 27.875 120.871 29.977 C 122.475 32.076 123.65 34.521 123.953 36.8 C 124.042 37.456 124.082 38.165 124.082 38.911 C 124.085 42.213 123.275 46.211 122.525 49.785 C 121.629 54.083 120.45 58.196 119.222 61.311 C 118.716 62.616 117.461 63.744 115.869 64.597 C 115.08 65.022 114.218 65.377 113.361 65.661 C 111.221 65.897 108.708 66.047 106.159 66.227 C 102.868 66.458 99.379 66.656 96.158 66.69 C 95.931 66.692 95.698 66.694 95.46 66.694 C 93.488 66.694 91.144 66.612 88.752 66.611 C 87.616 66.612 86.471 66.634 85.344 66.69 L 85.307 66.69 C 82.288 66.726 79.738 66.751 77.388 67.197 C 75.041 67.64 72.896 68.543 70.879 70.267 C 70.169 70.878 69.605 71.719 69.07 72.716 C 68.275 74.211 67.572 76.074 66.912 78.026 C 66.252 79.976 65.641 82.012 65.063 83.815 C 64.194 86.524 63.718 88.557 62.908 91.059 C 62.377 92.723 61.649 94.513 61.642 96.552 C 61.641 97.487 61.806 98.47 62.218 99.462 C 62.67 100.561 63.412 101.45 64.295 102.144 C 65.625 103.185 67.263 103.817 68.938 104.241 C 70.613 104.662 72.335 104.867 73.842 104.986 C 77.606 105.282 83.417 105.94 87.466 106.386 C 91.844 106.864 96.576 107.565 100.455 108.974 C 102.395 109.676 104.116 110.553 105.479 111.637 C 106.844 112.723 107.851 113.999 108.435 115.56 C 108.796 116.524 108.957 117.636 108.956 118.835 C 108.961 121.812 107.956 125.288 106.986 128.224 C 104.439 135.941 101.506 143.923 99.081 151.37 C 97.989 154.719 96.557 158.188 94.678 161.104 C 92.797 164.026 90.486 166.371 87.658 167.591 C 87.634 167.601 87.608 167.607 87.585 167.617 C 87.481 167.619 87.376 167.631 87.273 167.631 C 85.169 167.635 83.208 167.194 81.986 166.606 C 80.871 166.072 79.956 165.323 79.187 164.381 C 78.037 162.968 77.228 161.102 76.717 158.941 C 76.205 156.782 75.99 154.341 75.991 151.817 C 75.989 146.797 76.836 141.462 77.741 137.334 C 78.453 134.06 79.392 130.468 79.495 127.205 L 79.495 127.191 L 79.495 127.203 L 79.498 126.961 C 79.498 126.292 79.427 125.556 79.32 124.884 C 79.267 124.547 79.204 124.229 79.132 123.939 C 79.059 123.649 78.983 123.396 78.875 123.151 L 78.874 123.148 C 78.41 122.128 77.882 121.326 77.218 120.718 C 76.722 120.262 76.156 119.929 75.551 119.703 C 74.64 119.363 73.659 119.246 72.544 119.182 C 71.426 119.118 70.16 119.113 68.657 119.054 C 57.534 118.62 48.135 117.937 38.585 116.423 C 34.521 115.562 30.542 114.672 26.664 113.893 C 26.453 113.846 26.241 113.808 26.029 113.765 C 25.848 113.729 25.665 113.69 25.484 113.655 C 25.442 113.647 25.391 113.641 25.348 113.633 C 25.191 113.604 25.037 113.58 24.88 113.556 C 24.659 113.521 24.427 113.49 24.186 113.461 C 23.846 113.418 23.513 113.388 23.181 113.365 C 22.607 113.322 22.009 113.293 21.384 113.293 C 20.018 113.293 18.573 113.408 17.222 113.718 C 15.873 114.031 14.602 114.53 13.613 115.394 C 13.016 115.919 12.634 116.604 12.408 117.332 C 12.181 118.063 12.097 118.846 12.097 119.655 C 12.099 121.19 12.402 122.836 12.793 124.378 C 13.185 125.917 13.669 127.348 14.054 128.409 C 18.064 139.466 24.616 149.138 32.26 156.602 C 43.016 167.101 56.161 174.878 72.244 178.829 C 78.898 180.466 86.413 181.77 93.93 181.771 C 96.086 181.771 98.242 181.663 100.378 181.425 C 104.305 180.988 107.719 180.401 110.844 179.668 C 118.41 178.396 124.07 176.424 130.102 173.803 C 145.237 167.241 155.565 158.326 164.75 146.376 C 175.093 132.921 183.5 113.267 183.506 92.541 C 183.506 87.184 182.942 81.756 181.7 76.352 Z " fill="rgb(254,254,254)"/><path d=" M 95.888 0 C 43.015 0 0 43.015 0 95.888 C 0 148.761 43.015 191.776 95.888 191.776 C 148.761 191.776 191.776 148.761 191.776 95.888 C 191.776 43.015 148.761 0 95.888 0 L 95.888 0 Z  M 95.888 4 C 146.636 4 187.776 45.141 187.776 95.888 C 187.776 146.638 146.636 187.776 95.888 187.776 C 45.141 187.776 4 146.638 4 95.888 C 4 45.141 45.141 4 95.888 4 Z " fill="rgb(254,254,254)"/></g></g></svg>